<svg enable-background="new 0 0 36 36" height="512" viewBox="0 0 36 36" width="512" xmlns="http://www.w3.org/2000/svg"><g id="Layer_2"><g><path d="m34.904 20.355c-3.782-5.791-3.38-11.727-5.203-14.518s-7.256-7.603-20.093.782-9.572 17.5-7.566 20.569c9.388 14.372 39.561 3.423 32.862-6.833z" fill="#efefef"/></g></g><g id="color"><g><path d="m27.25 10.75h-18.5c-1.1 0-2 .9-2 2v10.5c0 1.1.9 2 2 2h7 4.5 7c1.1 0 2-.9 2-2v-10.5c0-1.1-.9-2-2-2z" fill="#2fdf84"/></g><g><path d="m9 23.25v-10.5c0-1.1.9-2 2-2h-2.25c-1.1 0-2 .9-2 2v10.5c0 1.1.9 2 2 2h2.25c-1.1 0-2-.9-2-2z" fill="#00b871"/></g><g><path d="m19.25 27.25h-2.5c-.552 0-1-.448-1-1v-16.5c0-.552.448-1 1-1h2.5c.552 0 1 .448 1 1v16.5c0 .552-.448 1-1 1z" fill="#f3f3f1"/></g><g><path d="m18 26.25v-16.5c0-.552.448-1 1-1h-2.25c-.552 0-1 .448-1 1v16.5c0 .552.448 1 1 1h2.25c-.552 0-1-.448-1-1z" fill="#d5dbe1"/></g><g><g><path d="m4.555 3.967h1v2h-1z" fill="#a4afc1" transform="matrix(.707 -.707 .707 .707 -2.031 5.03)"/></g><g><path d="m3.878 8.533h2v1h-2z" fill="#a4afc1" transform="matrix(.707 -.707 .707 .707 -4.958 6.095)"/></g><g><path d="m7.944 4.467h2v1h-2z" fill="#a4afc1" transform="matrix(.707 -.707 .707 .707 -.892 7.78)"/></g></g><g><path d="m31 31.5c-.827 0-1.5-.673-1.5-1.5s.673-1.5 1.5-1.5 1.5.673 1.5 1.5-.673 1.5-1.5 1.5zm0-2c-.276 0-.5.224-.5.5s.224.5.5.5.5-.224.5-.5-.224-.5-.5-.5z" fill="#a4afc1"/></g></g><g id="line"><g><path d="m27.25 26h-7v-1.5h7c.689 0 1.25-.561 1.25-1.25v-10.5c0-.689-.561-1.25-1.25-1.25h-7v-1.5h7c1.517 0 2.75 1.233 2.75 2.75v10.5c0 1.517-1.233 2.75-2.75 2.75z"/></g><g><path d="m15.75 26h-7c-1.517 0-2.75-1.233-2.75-2.75v-10.5c0-1.517 1.233-2.75 2.75-2.75h7v1.5h-7c-.689 0-1.25.561-1.25 1.25v10.5c0 .689.561 1.25 1.25 1.25h7z"/></g><g><path d="m19.25 28h-2.5c-.965 0-1.75-.785-1.75-1.75v-16.5c0-.965.785-1.75 1.75-1.75h2.5c.965 0 1.75.785 1.75 1.75v16.5c0 .965-.785 1.75-1.75 1.75zm-2.5-18.5c-.138 0-.25.112-.25.25v16.5c0 .138.112.25.25.25h2.5c.138 0 .25-.112.25-.25v-16.5c0-.138-.112-.25-.25-.25z"/></g><g><path d="m9.75 13h2.5v1.5h-2.5z"/></g><g><path d="m23.75 21.5h2.5v1.5h-2.5z"/></g></g></svg>