<svg id="Capa_1" enable-background="new 0 0 512 512" height="512" viewBox="0 0 512 512" width="512" xmlns="http://www.w3.org/2000/svg"><g><path d="m256 294.381c22.008 0 39.563-17.239 39.968-39.246.414-22.406-17.528-40.734-39.968-40.734-21.731 0-39.662 17.679-39.969 39.4-.335 22.354 17.598 40.58 39.969 40.58zm0-59.98c11.164 0 20.179 9.082 19.972 20.366-.202 10.998-8.975 19.614-19.972 19.614-11.278 0-20.137-9.177-19.971-20.289.157-11.041 8.928-19.691 19.971-19.691z"/><circle cx="459" cy="305.951" r="10"/><path d="m112.767 339.072c-17.929 67.905-11.446 116.253 18.234 133.39 38.961 22.49 93.264-19.665 124.999-51.255 31.808 31.664 86.067 73.73 125 51.255 29.679-17.136 36.162-65.481 18.235-133.381 7.389-1.911 14.54-3.968 21.345-6.153 5.258-1.688 8.152-7.319 6.465-12.578-1.688-5.257-7.312-8.155-12.578-6.465-6.609 2.121-13.573 4.12-20.787 5.975-6.522-20.708-14.928-42.147-25.053-63.909 10.128-21.766 18.533-43.205 25.054-63.911 60.047 15.452 98.319 40.141 98.319 63.911 0 5.367-1.969 10.87-5.853 16.354-3.19 4.508-2.124 10.749 2.384 13.94s10.749 2.124 13.94-2.383c6.322-8.931 9.528-18.322 9.528-27.911 0-45.659-68.722-71.722-112.767-83.121 17.929-67.905 11.446-116.253-18.234-133.39-29.766-17.182-75.009 1.49-124.998 51.253-49.989-49.761-95.232-68.434-125-51.252-29.68 17.137-36.162 65.485-18.233 133.389-44.066 11.405-112.767 37.469-112.767 83.121 0 45.659 68.722 71.722 112.767 83.121zm143.233-219.415c10.311 11.345 20.469 23.719 30.372 37.006-20.146-.926-40.603-.926-60.744 0 9.901-13.286 20.061-25.661 30.372-37.006zm0 272.588c-10.31-11.344-20.468-23.717-30.369-37.002 19.951.923 39.901.964 60.739 0-9.901 13.284-20.06 25.658-30.37 37.002zm45.229-214.679c16.269 23.944 31.873 50.722 45.257 78.385-12.992 26.854-28.468 53.674-45.257 78.385-29.772 2.134-60.677 2.134-90.459 0-16.269-23.944-31.873-50.722-45.257-78.385 12.992-26.853 28.466-53.671 45.257-78.385 29.772-2.134 60.678-2.134 90.459 0zm55.943 101.719c6.607 15.334 12.276 30.422 16.96 45.111-15.101 3.159-30.943 5.699-47.384 7.58 11.226-17.498 21.256-34.946 30.424-52.691zm-30.424-99.359c16.439 1.881 32.282 4.422 47.385 7.581-4.684 14.688-10.353 29.775-16.961 45.111-9.204-17.815-19.247-35.269-30.424-52.692zm-171.92 52.691c-6.607-15.334-12.276-30.422-16.961-45.111 15.101-3.159 30.943-5.699 47.385-7.58-11.225 17.496-21.255 34.946-30.424 52.691zm0 46.668c9.205 17.814 19.247 35.268 30.424 52.691-16.439-1.881-32.282-4.422-47.385-7.581 4.684-14.688 10.353-29.774 16.961-45.11zm-13.828 175.856c-28.082-16.215-17.042-80.188-8.758-111.482 21.218 4.509 43.856 7.799 67.456 9.845 13.658 19.468 27.898 37.329 42.453 53.245-41.501 41.27-80.68 60.206-101.151 48.392zm230.001-.001c-27.909 16.111-78.204-25.555-101.159-48.384 14.559-15.92 28.802-33.785 42.461-53.253 23.604-2.047 46.241-5.337 67.456-9.845 8.281 31.288 19.324 95.267-8.758 111.482zm-.001-398.379c28.082 16.215 17.042 80.188 8.758 111.482-21.218-4.509-43.856-7.799-67.456-9.845-13.661-19.471-27.903-37.335-42.46-53.253 22.955-22.828 73.245-64.494 101.158-48.384zm-230.001.001c27.961-16.141 78.354 25.704 101.159 48.384-14.559 15.92-28.802 33.785-42.461 53.253-23.604 2.047-46.241 5.337-67.456 9.845-8.281-31.289-19.324-95.267 8.758-111.482zm-22.679 135.278c6.522 20.709 14.928 42.149 25.054 63.911-10.128 21.766-18.533 43.205-25.054 63.911-60.048-15.452-98.32-40.141-98.32-63.911 0-23.769 38.27-48.458 98.32-63.911z"/></g></svg>